HIERARCHY
ROOT Hips
{
	OFFSET 0.000000 0.000000 0.000000
	CHANNELS 6 Xposition Yposition Zposition Zrotation Yrotation Xrotation 
	JOINT LHipJoint
	{
		OFFSET 0.000000 0.000000 0.000000
		CHANNELS 3 Zrotation Yrotation Xrotation
		JOINT LeftUpLeg
		{
			OFFSET 1.363060 -1.794630 0.839290
			CHANNELS 3 Zrotation Yrotation Xrotation
			JOINT LeftLeg
			{
				OFFSET 2.448110 -6.726130 0.000000
				CHANNELS 3 Zrotation Yrotation Xrotation
				JOINT LeftFoot
				{
					OFFSET 2.562200 -7.039590 0.000000
					CHANNELS 3 Zrotation Yrotation Xrotation
					JOINT LeftToeBase
					{
						OFFSET 0.157640 -0.433110 2.322550
						CHANNELS 3 Zrotation Yrotation Xrotation
						End Site
						{
							OFFSET 0.000000 0.000000 0.000000
						}
					}
				}
			}
		}
	}
	JOINT RHipJoint
	{
		OFFSET 0.000000 0.000000 0.000000
		CHANNELS 3 Zrotation Yrotation Xrotation
		JOINT RightUpLeg
		{
			OFFSET -1.305520 -1.794630 0.839290
			CHANNELS 3 Zrotation Yrotation Xrotation
			JOINT RightLeg
			{
				OFFSET -2.542530 -6.985550 0.000000
				CHANNELS 3 Zrotation Yrotation Xrotation
				JOINT RightFoot
				{
					OFFSET -2.568260 -7.056230 0.000000
					CHANNELS 3 Zrotation Yrotation Xrotation
					JOINT RightToeBase
					{
						OFFSET -0.164730 -0.452590 2.363150
						CHANNELS 3 Zrotation Yrotation Xrotation
						End Site
						{
							OFFSET 0.000000 0.000000 0.000000
						}
					}
				}
			}
		}
	}
	JOINT LowerBack
	{
		OFFSET 0.000000 0.000000 0.000000
		CHANNELS 3 Zrotation Yrotation Xrotation
		JOINT Spine
		{
			OFFSET 0.028270 2.035590 -0.193380
			CHANNELS 3 Zrotation Yrotation Xrotation
			JOINT Spine1
			{
				OFFSET 0.056720 2.048850 -0.042750
				CHANNELS 3 Zrotation Yrotation Xrotation
				JOINT Neck
				{
					OFFSET 0.000000 0.000000 0.000000
					CHANNELS 3 Zrotation Yrotation Xrotation
					JOINT Neck1
					{
						OFFSET -0.054170 1.746240 0.172020
						CHANNELS 3 Zrotation Yrotation Xrotation
						JOINT Head
						{
							OFFSET 0.104070 1.761360 -0.123970
							CHANNELS 3 Zrotation Yrotation Xrotation
							End Site
							{
								OFFSET 0.000000 0.000000 0.000000
							}
						}
					}
				}
				JOINT LeftShoulder
				{
					OFFSET 0.000000 0.000000 0.000000
					CHANNELS 3 Zrotation Yrotation Xrotation
					JOINT LeftArm
					{
						OFFSET 3.362410 1.200890 -0.311210
						CHANNELS 3 Zrotation Yrotation Xrotation
						JOINT LeftForeArm
						{
							OFFSET 4.983000 -0.000000 -0.000000
							CHANNELS 3 Zrotation Yrotation Xrotation
							JOINT LeftHand
							{
								OFFSET 3.483560 -0.000000 -0.000000
								CHANNELS 3 Zrotation Yrotation Xrotation
								JOINT LeftFingerBase
								{
									OFFSET 0.000000 0.000000 0.000000
									CHANNELS 3 Zrotation Yrotation Xrotation
									JOINT LeftHandIndex1
									{
										OFFSET 0.715260 -0.000000 -0.000000
										CHANNELS 3 Zrotation Yrotation Xrotation
										End Site
										{
											OFFSET 0.000000 0.000000 0.000000
										}
									}
								}
								JOINT LThumb
								{
									OFFSET 0.000000 0.000000 0.000000
									CHANNELS 3 Zrotation Yrotation Xrotation
									End Site
									{
										OFFSET 0.000000 0.000000 0.000000
									}
								}
							}
						}
					}
				}
				JOINT RightShoulder
				{
					OFFSET 0.000000 0.000000 0.000000
					CHANNELS 3 Zrotation Yrotation Xrotation
					JOINT RightArm
					{
						OFFSET -3.136600 1.374050 -0.404650
						CHANNELS 3 Zrotation Yrotation Xrotation
						JOINT RightForeArm
						{
							OFFSET -5.241900 -0.000000 -0.000000
							CHANNELS 3 Zrotation Yrotation Xrotation
							JOINT RightHand
							{
								OFFSET -3.444170 -0.000000 -0.000000
								CHANNELS 3 Zrotation Yrotation Xrotation
								JOINT RightFingerBase
								{
									OFFSET 0.000000 0.000000 0.000000
									CHANNELS 3 Zrotation Yrotation Xrotation
									JOINT RightHandIndex1
									{
										OFFSET -0.622530 -0.000000 -0.000000
										CHANNELS 3 Zrotation Yrotation Xrotation
										End Site
										{
											OFFSET 0.000000 0.000000 0.000000
										}
									}
								}
								JOINT RThumb
								{
									OFFSET 0.000000 0.000000 0.000000
									CHANNELS 3 Zrotation Yrotation Xrotation
									End Site
									{
										OFFSET 0.000000 0.000000 0.000000
									}
								}
							}
						}
					}
				}
			}
		}
	}
}
MOTION
Frames: 7
Frame Time: 0.008333
12.209986 16.993865 45.757859 164.530102 -6.268675 -167.895893 9.974460 -0.823038 -4.830369 -45.622952 -5.940815 -7.900201 -8.207064 3.750666 5.273628 2.249176 4.893179 24.305308 0.380600 -3.962300 -10.970500 -10.288651 3.175019 -6.532621 -1.217109 20.612188 -22.412382 -5.440658 -21.762758 46.012981 14.753453 -33.020568 -6.711216 -0.007600 0.562100 -1.544500 -13.252360 3.779506 -9.407767 -2.019901 8.124710 -3.899966 -10.950026 2.444949 2.714472 10.329786 15.282702 -4.003193 4.626413 17.554984 11.748008 -3.334600 9.556000 9.144800 -8.056283 -9.375646 0.541429 -58.807559 -2.578024 53.073314 10.199937 -15.459150 -2.702989 -2.962129 -5.051803 -46.292884 22.039103 2.197561 1.842700 -7.125000 0.000000 0.000000 0.932400 33.938200 -0.253000 9.744130 9.196000 -0.643063 79.214097 -2.329344 52.132141 -13.913064 18.510944 -3.633447 2.611755 2.810924 -1.402524 -16.372019 -16.228306 6.362100 7.125000 0.000000 0.000000 9.031600 -49.606500 -1.033300 
12.210816 16.994814 45.759875 164.513638 -6.269201 -167.886267 9.966079 -0.813001 -4.825433 -45.641276 -5.942726 -7.829474 -8.209397 3.685791 5.136885 2.261450 4.893139 24.374013 0.373000 -3.922700 -10.859300 -10.294771 3.173506 -6.534148 -1.233967 20.624483 -22.416996 -5.436744 -21.763928 46.004047 14.742881 -32.999626 -6.711033 -0.006500 0.520700 -1.430900 -13.299285 3.725978 -9.450195 -2.002644 8.062764 -3.905219 -10.830799 2.433644 2.780836 10.134275 14.929395 -4.133222 4.715164 17.028841 12.031449 -3.274100 9.298800 9.320800 -8.054564 -9.360928 0.477634 -58.909536 -2.540903 52.867960 10.180502 -15.437443 -2.692358 -2.983445 -4.986462 -46.272497 21.949544 1.944554 1.674400 -7.125000 0.000000 0.000000 0.835800 33.591000 -0.233800 9.727005 9.198672 -0.682920 79.120130 -2.288071 52.191907 -13.898704 18.492038 -3.626511 2.612832 2.810427 -1.401696 -16.369002 -16.218748 6.358100 7.125000 0.000000 0.000000 9.030500 -49.596100 -1.030800 
12.212239 16.996356 45.761772 164.503541 -6.268762 -167.878137 9.960694 -0.813143 -4.824819 -45.626541 -5.952955 -7.854624 -8.209843 3.698325 5.159616 2.259220 4.893492 24.358878 0.361600 -3.863200 -10.692100 -10.298022 3.176474 -6.539970 -1.236396 20.614927 -22.417370 -5.434955 -21.758530 45.991986 14.753107 -33.018566 -6.712258 -0.007000 0.538400 -1.479600 -13.345089 3.673237 -9.496623 -1.987682 8.013564 -3.903410 -10.706994 2.432044 2.936208 9.893069 14.564502 -4.395350 4.821774 16.496024 12.322755 -3.176000 9.031100 9.531000 -8.050316 -9.350501 0.411175 -58.997958 -2.595894 52.672341 10.192870 -15.450602 -2.701667 -2.974651 -5.031294 -46.192870 22.037955 2.146263 1.808900 -7.125000 0.000000 0.000000 0.925300 33.866700 -0.252700 9.704898 9.211507 -0.723422 79.031740 -2.157942 52.206791 -13.885323 18.472990 -3.621129 2.620468 2.807452 -1.377714 -16.405323 -16.217194 6.372000 7.125000 0.000000 0.000000 8.988000 -49.598200 -1.026400 
12.214374 16.996711 45.765093 164.525974 -6.257016 -167.865108 9.943675 -0.821669 -4.824287 -45.566419 -5.948550 -7.898742 -8.210017 3.701833 5.161918 2.255087 4.912823 24.370168 0.349500 -3.798400 -10.510100 -10.301759 3.187730 -6.544007 -1.224550 20.636430 -22.445879 -5.427844 -21.770825 45.978491 14.753748 -33.023749 -6.696756 -0.006700 0.526800 -1.447500 -13.359281 3.619519 -9.517501 -1.965591 7.944647 -3.907429 -10.555030 2.423945 3.031553 9.587383 14.243065 -4.599595 4.942514 16.029717 12.602412 -3.044600 8.786000 9.715000 -8.055142 -9.349428 0.344787 -59.136932 -2.632741 52.438324 10.174096 -15.415532 -2.691974 -2.982163 -5.012025 -46.168020 22.015489 2.096384 1.772500 -7.125000 0.000000 0.000000 0.899900 33.792500 -0.247400 9.674074 9.229199 -0.762352 78.896872 -2.069510 52.233671 -13.893427 18.479000 -3.624156 2.613568 2.811173 -1.393145 -16.357854 -16.210265 6.351900 7.125000 0.000000 0.000000 9.038700 -49.587000 -1.029700 
12.216627 16.997423 45.768414 164.538034 -6.248075 -167.850986 9.930112 -0.829753 -4.824915 -45.515872 -5.950958 -7.952413 -8.210257 3.718538 5.191241 2.250935 4.923749 24.363701 0.337400 -3.732900 -10.326500 -10.306566 3.198001 -6.549904 -1.218574 20.652267 -22.467820 -5.420907 -21.778569 45.965441 14.753651 -33.026253 -6.692820 -0.006300 0.512200 -1.407500 -13.390122 3.557887 -9.548372 -1.943264 7.873004 -3.908638 -10.393092 2.415027 3.153307 9.281127 13.912202 -4.824671 5.054888 15.553422 12.880072 -2.919700 8.533400 9.908900 -8.057861 -9.344414 0.277300 -59.272904 -2.678458 52.190185 10.163913 -15.394452 -2.687524 -2.987569 -5.004747 -46.131987 22.018794 2.089422 1.766200 -7.125000 0.000000 0.000000 0.900900 33.778800 -0.248000 9.646347 9.246667 -0.798774 78.758137 -1.951824 52.282856 -13.891980 18.472548 -3.623106 2.611907 2.813405 -1.402304 -16.338118 -16.206859 6.344100 7.125000 0.000000 0.000000 9.058400 -49.582400 -1.031000 
12.218880 16.998016 45.771615 164.546521 -6.234539 -167.834935 9.917094 -0.838035 -4.826405 -45.468336 -5.951119 -8.011796 -8.210274 3.738911 5.227568 2.245518 4.935374 24.350522 0.325000 -3.664000 -10.133200 -10.312833 3.208929 -6.557243 -1.215740 20.670685 -22.490468 -5.414875 -21.787278 45.953916 14.753377 -33.028643 -6.688346 -0.006000 0.498700 -1.370400 -13.430026 3.489531 -9.581534 -1.918845 7.795690 -3.908286 -10.211979 2.404876 3.288583 8.950109 13.588290 -5.062415 5.166679 15.092792 13.154891 -2.786800 8.283100 10.107200 -8.060970 -9.338851 0.209028 -59.424354 -2.736696 51.919183 10.152163 -15.370588 -2.682411 -2.993777 -4.998457 -46.101489 22.028003 2.083788 1.760800 -7.125000 0.000000 0.000000 0.907700 33.766200 -0.250100 9.618753 9.265890 -0.832284 78.598891 -1.817048 52.345988 -13.893341 18.468325 -3.623050 2.608484 2.817140 -1.418560 -16.307756 -16.204568 6.332700 7.125000 0.000000 0.000000 9.090400 -49.578400 -1.033800 
12.221134 16.998490 45.774225 164.545011 -6.217637 -167.817263 9.904601 -0.840105 -4.827574 -45.442370 -5.946427 -8.032496 -8.210573 3.731272 5.205195 2.243092 4.949389 24.357967 0.313300 -3.598400 -9.949400 -10.321246 3.217413 -6.566000 -1.219872 20.689104 -22.510270 -5.409644 -21.795163 45.942639 14.751165 -33.026766 -6.683358 -0.005600 0.484700 -1.331900 -13.485584 3.410172 -9.620306 -1.891272 7.709664 -3.905523 -10.004945 2.391876 3.440919 8.593631 13.271240 -5.310669 5.274893 14.648826 13.425832 -2.650000 8.035700 10.309000 -8.063398 -9.331152 0.140017 -59.599036 -2.806184 51.615232 10.136967 -15.342384 -2.675654 -3.002880 -4.986168 -46.078747 22.033176 2.050297 1.737100 -7.125000 0.000000 0.000000 0.909900 33.714900 -0.251900 9.593379 9.285356 -0.861493 78.411704 -1.664647 52.434105 -13.897516 18.466070 -3.623641 2.604274 2.820651 -1.444164 -16.277819 -16.194390 6.318700 7.125000 0.000000 0.000000 9.119800 -49.566000 -1.034400 
